<svg width="115" height="35" viewBox="0 0 115 35" xmlns="http://www.w3.org/2000/svg" xmlns:xlink="http://www.w3.org/1999/xlink"><title>logo-seatgeek</title><defs><path id="a" d="M.5 11.94h39.048V.632H.5z"/></defs><g fill="none" fill-rule="evenodd"><g transform="translate(66 23)"><mask id="b" fill="#fff"><use xlink:href="#a"/></mask><path d="M37.644.632c-3.444 5.48-9.543 9.122-16.493 9.122-6.95 0-13.05-3.643-16.494-9.122h-.001L2.49 1.99.5 3.473l.801 1.275 2.245-1.072.353-.221C7.866 8.645 14.114 12 21.151 12c7.752 0 14.555-4.062 18.397-10.174L37.644.632" fill="#646460" mask="url(#b)"/></g><path d="M4.206 21.498c-1.393 0-2.756-.17-3.865-.455l.142-2.5c1.108.398 2.615.71 3.95.71 2.303 0 4.206-.938 4.206-3.297C8.639 11.637 0 13.342 0 7.232c0-3.155 2.501-5.429 6.821-5.429 1.165 0 2.329.114 3.467.342l-.143 2.33c-1.108-.312-2.33-.512-3.466-.512-2.616 0-3.979 1.194-3.979 2.984 0 4.149 8.668 2.644 8.668 8.64 0 3.438-2.7 5.911-7.162 5.911m16.03-12.76c-1.847 0-3.154 1.392-3.438 3.467h6.593c.056-2.075-1.165-3.467-3.155-3.467zm5.684 5.286h-9.236c-.115 3.78 1.449 5.399 4.461 5.399 1.45 0 2.985-.34 4.122-.88l.226 2.074c-1.363.569-3.011.881-4.774.881-4.349 0-6.679-2.274-6.679-7.246 0-4.235 2.303-7.39 6.31-7.39 3.979 0 5.655 2.7 5.655 5.94 0 .34-.028.738-.085 1.222zm11.227.71c-4.916 0-5.996 1.507-5.996 2.786 0 1.193.853 1.961 2.16 1.961 2.301 0 3.836-2.274 3.836-4.491v-.256zm.143 6.508c0-.994 0-2.018.142-2.813h-.057c-.683 1.734-2.473 3.069-4.804 3.069-2.33 0-3.921-1.25-3.921-3.496 0-3.097 3.155-5.058 8.497-5.058v-1.051c0-1.962-.767-3.013-3.097-3.013-1.336 0-3.041.426-4.263 1.166l-.256-2.19c1.364-.568 3.07-1.022 4.945-1.022 4.064 0 5.229 1.904 5.229 4.717v7.702c.682.114 1.648.228 2.473.285v1.505c-1.421.171-3.382.285-4.888.199zm12.187.227c-2.899 0-3.78-1.193-3.78-4.234V9.107h-2.899V7.118h2.899V2.543l2.558-.711v5.286h3.95v1.989h-3.95v7.219c0 2.33.426 2.956 2.018 2.956.653 0 1.364-.114 1.932-.257v2.161c-.796.171-1.818.283-2.728.283" fill="#2F5F9A"/><path d="M69.855 5.071a13.61 13.61 0 0 0-5.116-1.023c-3.949 0-7.332 2.559-7.332 7.674 0 4.775 2.786 7.502 7.105 7.502 1.278 0 2.359-.199 3.382-.511v-7.247h2.586v8.924c-1.904.71-4.235 1.108-6.337 1.108-5.798 0-9.521-3.524-9.521-9.463 0-5.883 3.922-10.232 10.372-10.232 1.82 0 3.554.285 5.259.824l-.398 2.444m9.806 3.667c-1.848 0-3.154 1.392-3.439 3.467h6.594c.057-2.075-1.166-3.467-3.155-3.467zm5.684 5.286h-9.236c-.113 3.78 1.449 5.399 4.462 5.399 1.449 0 2.984-.34 4.12-.88l.229 2.074c-1.365.569-3.014.881-4.775.881-4.348 0-6.679-2.274-6.679-7.246 0-4.235 2.302-7.39 6.309-7.39 3.979 0 5.655 2.7 5.655 5.94 0 .34-.028.738-.085 1.222zm8.699-5.286c-1.847 0-3.155 1.392-3.439 3.467h6.593c.056-2.075-1.165-3.467-3.154-3.467zm5.684 5.286h-9.237c-.114 3.78 1.449 5.399 4.462 5.399 1.45 0 2.984-.34 4.121-.88l.227 2.074c-1.364.569-3.011.881-4.774.881-4.35 0-6.679-2.274-6.679-7.246 0-4.235 2.303-7.39 6.309-7.39 3.979 0 5.655 2.7 5.655 5.94 0 .34-.028.738-.084 1.222zm11.881 7.218l-5.23-7.275v7.275h-2.557V2.485a28.673 28.673 0 0 0-2.473-.284V.695c1.421-.17 3.383-.284 5.03-.199v12.817l4.975-6.195h3.125l-5.428 6.451 5.854 7.673h-3.296" fill="#646460"/></g></svg>